<svg height='300px' width='300px'  fill="#ff9300" xmlns="http://www.w3.org/2000/svg" xmlns:xlink="http://www.w3.org/1999/xlink" version="1.1" x="0px" y="0px" viewBox="-912.34 655.461 91 91" enable-background="new -912.34 655.461 91 91" xml:space="preserve"><g><path d="M-883.498,689.119c-0.568,5.583-0.833,11.268-0.967,16.878c-0.097,4.05-0.582,8.769,1.927,12.255   c2.419,3.359,6.826,4.055,10.65,4.539c4.26,0.541,9.344,1.002,13.362-0.859c3.65-1.691,5.071-5.303,6.112-8.941   c1.361-4.763,1.952-9.559,1.821-14.513c-0.22-8.37-1.323-17.1-9.978-20.745c-8.673-3.654-18.764,0.43-22.547,9.027   c-0.302,0.686-0.302,1.306-0.114,1.82C-883.37,688.699-883.473,688.878-883.498,689.119z M-879.059,688.47   c3.307-8.279,14.603-11.219,21.173-4.794c3.15,3.081,3.391,7.927,3.628,12.059c0.29,5.023,0.105,9.985-1.215,14.863   c-0.521,1.928-0.983,4.063-2.061,5.77c-1.39,2.199-3.623,2.912-6.116,3.115c-4.291,0.348-10.243,0.25-14.114-1.869   c-4.206-2.305-3.193-8.618-3.328-12.61c-0.168-5.035-0.38-10.121-0.857-15.14C-880.932,690.256-879.644,689.936-879.059,688.47z"></path><path d="M-876.549,738.314c0.313,0.297,0.628,0.59,0.934,0.893c0.745,0.74,1.458,1.504,2.11,2.326   c1.331,1.682,2.729,3.521,4.959,3.982c2.007,0.412,3.523-0.527,4.545-2.201c1.377-2.258,2.906-4.76,3.956-7.191   c0.537-1.24-1.032-2.207-1.832-1.07c-0.984,1.398-2.167,2.637-3.25,3.959c-0.179-3.533-0.425-7.145-1.151-10.541   c-0.405-1.898-3.295-1.42-3.319,0.449c-0.044,3.486-0.438,7.209-0.186,10.771c-0.06-0.088-0.116-0.17-0.165-0.236   c-1.301-1.781-2.94-4.43-5.084-5.248c-2.271-0.865-3.801,2.816-1.653,3.922C-877.262,737.832-876.708,738.164-876.549,738.314z"></path><path d="M-859.293,663.341c-0.668-0.812-1.261-1.658-1.823-2.545c-1.135-1.792-2.461-3.74-4.633-4.331   c-2.167-0.588-3.743,0.564-4.898,2.298c-1.413,2.116-3.137,4.125-4.36,6.359c-0.555,1.015,0.854,2.236,1.666,1.285   c1.129-1.321,2.525-2.376,3.726-3.627c-0.166,3.401-0.278,6.895,0.091,10.198c0.243,2.167,3.138,2.174,3.379,0   c0.375-3.374,1.17-7.013,1.26-10.506c1.065,1.824,2.427,4.835,4.349,5.795c2.467,1.229,4.499-2.195,2.166-3.708   C-857.836,664.904-859.06,663.625-859.293,663.341z"></path><path d="M-868.845,697.74c0.828,1.051,2.74-0.087,2.267-1.32c0.036,0.094,0.054,0.151,0.063,0.18   c-0.011-0.051-0.029-0.175-0.004-0.325c0.05-0.313,0.069-0.632,0.108-0.945c0.115-0.882,0.172-1.763,0.244-2.65   c0.065-0.806,0.081-1.65,0.237-2.444c0.004-0.023,0.098-0.177,0.153-0.46c0.057-0.294,0.054-0.537,0.04-0.812   c0.002-0.095-0.003-0.188-0.016-0.28c-0.012-0.164-0.024-0.207-0.034-0.176c-0.24-1.057-1.343-1.771-2.507-1.517   c-2.311,0.504-1.624,3.858-1.535,5.533C-869.745,694.077-869.872,696.44-868.845,697.74z"></path><path d="M-866.515,696.601C-866.508,696.634-866.504,696.637-866.515,696.601L-866.515,696.601z"></path></g></svg>