<svg height='300px' width='300px'  fill="#ff9300" xmlns:dc="http://purl.org/dc/elements/1.1/" xmlns:cc="http://creativecommons.org/ns#" xmlns:rdf="http://www.w3.org/1999/02/22-rdf-syntax-ns#" xmlns:svg="http://www.w3.org/2000/svg" xmlns="http://www.w3.org/2000/svg" xmlns:sodipodi="http://sodipodi.sourceforge.net/DTD/sodipodi-0.dtd" xmlns:inkscape="http://www.inkscape.org/namespaces/inkscape" version="1.1" x="0px" y="0px" viewBox="0 0 100 100"><g transform="translate(0,-952.36218)"><path style="text-indent:0;text-transform:none;direction:ltr;block-progression:tb;baseline-shift:baseline;color:#000000;enable-background:accumulate;" d="M 49.78125 6 A 2.0002 2.0002 0 0 0 48.59375 6.5625 L 38.59375 16.5625 A 2.0002 2.0002 0 1 0 41.40625 19.40625 L 50 10.8125 L 58.59375 19.40625 A 2.0002 2.0002 0 1 0 61.40625 16.5625 L 51.40625 6.5625 A 2.0002 2.0002 0 0 0 49.78125 6 z M 50 23 C 35.112033 23 23 35.11198 23 50 C 23 64.888 35.112033 77 50 77 C 64.887968 77 77 64.888 77 50 C 77 35.11198 64.887968 23 50 23 z M 50 27 C 62.726212 27 73 37.27374 73 50 C 73 62.7262 62.726212 73 50 73 C 37.273789 73 27 62.7262 27 50 C 27 37.27374 37.273789 27 50 27 z M 50 47 C 48.343146 47 47 48.343146 47 50 C 47 51.656854 48.343146 53 50 53 C 51.656854 53 53 51.656854 53 50 C 53 48.343146 51.656854 47 50 47 z M 39.78125 79.96875 A 2.0002 2.0002 0 0 0 38.59375 83.40625 L 48.59375 93.40625 A 2.0002 2.0002 0 0 0 51.40625 93.40625 L 61.40625 83.40625 A 2.0002 2.0002 0 1 0 58.59375 80.5625 L 50 89.15625 L 41.40625 80.5625 A 2.0002 2.0002 0 0 0 39.78125 79.96875 z " transform="translate(0,952.36218)" fill="#ff9300" fill-opacity="1" stroke="none" marker="none" visibility="visible" display="inline" overflow="visible"></path></g></svg>