<svg height='300px' width='300px'  fill="#ff9300" xmlns="http://www.w3.org/2000/svg" xmlns:xlink="http://www.w3.org/1999/xlink" version="1.1" x="0px" y="0px" viewBox="0 0 100 100" style="enable-background:new 0 0 100 100;" xml:space="preserve"><path d="M65,41c0-7.9-6.2-14.4-14-14.9V43h14V41z"></path><path d="M35,41v2h14V26.1C41.2,26.6,35,33.1,35,41z"></path><path d="M65,59V45H35v14c0,8.3,6.7,15,15,15S65,67.3,65,59z"></path><path d="M53.6,82.6L50,86.2l-3.6-3.6c-0.8-0.8-2-0.8-2.8,0s-0.8,2,0,2.8l5,5C49,90.8,49.5,91,50,91s1-0.2,1.4-0.6l5-5  c0.8-0.8,0.8-2,0-2.8S54.4,81.8,53.6,82.6z"></path><path d="M51.4,9.6c-0.8-0.8-2-0.8-2.8,0l-5,5c-0.8,0.8-0.8,2,0,2.8C44,17.8,44.5,18,45,18s1-0.2,1.4-0.6l3.6-3.6l3.6,3.6  C54,17.8,54.5,18,55,18s1-0.2,1.4-0.6c0.8-0.8,0.8-2,0-2.8L51.4,9.6z"></path></svg>